<?xml version="1.0" encoding="UTF-8" standalone="no"?>
<svg width="46px" height="46px" viewBox="0 0 46 46" version="1.1" xmlns="http://www.w3.org/2000/svg" xmlns:xlink="http://www.w3.org/1999/xlink" xmlns:sketch="http://www.bohemiancoding.com/sketch/ns">
    <!-- Generator: Sketch 3.4 (15575) - http://www.bohemiancoding.com/sketch -->
    <title>Shape</title>
    <desc>Created with Sketch.</desc>
    <defs></defs>
    <g id="Page-1" stroke="none" stroke-width="1" fill="none" fill-rule="evenodd" sketch:type="MSPage">
        <g id="Zero-state" sketch:type="MSArtboardGroup" transform="translate(-250.000000, -204.000000)" fill="#DBDBDB">
            <g id="Search-group" sketch:type="MSLayerGroup" transform="translate(243.000000, 192.000000)">
                <g id="text-field" transform="translate(20.000000, 15.000000)" sketch:type="MSShapeGroup">
                    <g id="link23">
                        <g id="Capa_1">
                            <path d="M18.4066376,9.06171968 L14.660131,12.8149505 C12.5923581,14.8883362 9.23790393,14.8883362 7.16978166,12.8149505 C6.84401747,12.489414 6.58917031,12.1226112 6.36537118,11.744343 L8.10615721,9.99999455 C8.1889083,9.9163677 8.2910917,9.86844965 8.38873362,9.81199824 C8.50908297,10.2240497 8.71917031,10.6141333 9.04253275,10.9382257 C10.0751965,11.973912 11.7555459,11.9724679 12.7875983,10.9382257 L16.5329258,7.18508241 C17.5663755,6.14952732 17.5663755,4.46600638 16.5329258,3.43123898 C15.5008297,2.39647159 13.820917,2.39647159 12.7875983,3.43123898 L11.4557642,4.7673431 C10.3749782,4.34562047 9.21056769,4.23223629 8.07703057,4.3987023 L10.9150655,1.554733 C12.9840611,-0.518258889 16.3376419,-0.518258889 18.4066376,1.554733 C20.4746288,3.62763736 20.4746288,6.98885908 18.4066376,9.06171968 L18.4066376,9.06171968 Z M8.50253275,15.2333024 L7.16973799,16.5694065 C6.13716157,17.6036488 4.45672489,17.6036488 3.4239738,16.5694065 C2.39131004,15.5337202 2.39131004,13.8501992 3.4239738,12.8149505 L7.16973799,9.06171968 C8.2031441,8.02625211 9.88244541,8.02625211 10.9150218,9.06171968 C11.2376419,9.38511184 11.4479476,9.77510791 11.5694323,10.1866343 C11.6676419,10.1294389 11.768559,10.082965 11.8512664,9.99995079 L13.5919214,8.25630253 C13.3695633,7.87654649 13.1134061,7.51105646 12.7875109,7.18516993 C10.7199127,5.11217805 7.36515284,5.11217805 5.29655022,7.18516993 L1.55135371,10.9384445 C-0.517030568,13.012049 -0.517030568,16.372308 1.55135371,18.4457375 C3.61995633,20.518073 6.97393013,20.518073 9.04248908,18.4457375 L11.8812664,15.6011555 C10.7471179,15.7685843 9.58240175,15.6542374 8.50253275,15.2333024 L8.50253275,15.2333024 Z" id="Shape"></path>
                        </g>
                    </g>
                </g>
            </g>
        </g>
    </g>
</svg>