<?xml version="1.0" encoding="UTF-8" standalone="no"?>
<svg width="247px" height="54px" viewBox="0 0 247 54" version="1.1" xmlns="http://www.w3.org/2000/svg" xmlns:xlink="http://www.w3.org/1999/xlink" xmlns:sketch="http://www.bohemiancoding.com/sketch/ns">
    <!-- Generator: Sketch 3.4 (15575) - http://www.bohemiancoding.com/sketch -->
    <title>Outlines Icon</title>
    <desc>Created with Sketch.</desc>
    <defs></defs>
    <g id="Page-1" stroke="none" stroke-width="1" fill="none" fill-rule="evenodd" sketch:type="MSPage">
        <g id="Icon-Loaded" sketch:type="MSArtboardGroup" transform="translate(-389.000000, -55.000000)" fill="#FFFFFF">
            <g id="Logo" sketch:type="MSLayerGroup" transform="translate(337.000000, 50.000000)">
                <g id="Outlines-Icon" transform="translate(52.000000, 5.000000)" sketch:type="MSShapeGroup">
                    <g id="Copy">
                        <path d="M24.1875,0 L2.6875,0 C1.2013125,0 0,1.2069 0,2.7 L0,35.1 C0,36.5904 1.2013125,37.8 2.6875,37.8 L16.125,37.8 L16.125,43.2 L21.5,43.2 L21.5,37.8 L16.1276875,37.8 L16.1276875,32.4 L21.5,32.4 L21.5,27 L16.125,27 L16.125,32.4 L5.375,32.4 L5.375,5.4 L21.5,5.4 L21.5,16.2 L26.875,16.2 L26.875,2.7 C26.875,1.2096 25.6736875,0 24.1875,0 L24.1875,0 L24.1875,0 Z M16.125,18.9 L16.125,21.6 L21.5,21.6 L21.5,16.2 L18.8125,16.2 C17.3263125,16.2 16.125,17.4069 16.125,18.9 L16.125,18.9 L16.125,18.9 Z M26.875,54 L32.25,54 L32.25,48.6 L26.875,48.6 L26.875,54 L26.875,54 L26.875,54 Z M26.875,21.6 L32.25,21.6 L32.25,16.2 L26.875,16.2 L26.875,21.6 L26.875,21.6 L26.875,21.6 Z M16.125,51.3 C16.125,52.7904 17.3263125,54 18.8125,54 L21.5,54 L21.5,48.6 L16.125,48.6 L16.125,51.3 L16.125,51.3 L16.125,51.3 Z M40.3125,16.2 L37.625,16.2 L37.625,21.6 L43,21.6 L43,18.9 C43,17.4096 41.7986875,16.2 40.3125,16.2 L40.3125,16.2 L40.3125,16.2 Z M37.625,54 L40.3125,54 C41.7986875,54 43,52.7904 43,51.3 L43,48.6 L37.625,48.6 L37.625,54 L37.625,54 L37.625,54 Z M37.625,32.4 L43,32.4 L43,27 L37.625,27 L37.625,32.4 L37.625,32.4 L37.625,32.4 Z M37.625,43.2 L43,43.2 L43,37.8 L37.625,37.8 L37.625,43.2 L37.625,43.2 L37.625,43.2 Z" id="Shape"></path>
                    </g>
                    <path d="M73.7421875,31.046875 C73.7421875,29.7187434 73.2734422,28.6992223 72.3359375,27.9882812 C71.3984328,27.2773402 69.7109497,26.5273477 67.2734375,25.7382812 C64.8359253,24.9492148 62.9062571,24.1718788 61.484375,23.40625 C57.6093556,21.3124895 55.671875,18.4922052 55.671875,14.9453125 C55.671875,13.1015533 56.1914011,11.4570385 57.2304688,10.0117188 C58.2695364,8.56639902 59.761709,7.43750406 61.7070312,6.625 C63.6523535,5.81249594 65.8359254,5.40625 68.2578125,5.40625 C70.6953247,5.40625 72.867178,5.84765184 74.7734375,6.73046875 C76.679697,7.61328566 78.160151,8.85936695 79.2148438,10.46875 C80.2695365,12.078133 80.796875,13.9062398 80.796875,15.953125 L73.765625,15.953125 C73.765625,14.3906172 73.2734424,13.1757856 72.2890625,12.3085938 C71.3046826,11.4414019 69.9218839,11.0078125 68.140625,11.0078125 C66.4218664,11.0078125 65.0859423,11.3710901 64.1328125,12.0976562 C63.1796827,12.8242224 62.703125,13.7812441 62.703125,14.96875 C62.703125,16.0781305 63.2617132,17.0078088 64.3789062,17.7578125 C65.4960993,18.5078162 67.1406141,19.2109342 69.3125,19.8671875 C73.31252,21.0703185 76.2265534,22.5624911 78.0546875,24.34375 C79.8828216,26.1250089 80.796875,28.3437367 80.796875,31 C80.796875,33.9531398 79.6796987,36.2695229 77.4453125,37.9492188 C75.2109263,39.6289146 72.2031439,40.46875 68.421875,40.46875 C65.7968619,40.46875 63.4062608,39.9882861 61.25,39.0273438 C59.0937392,38.0664014 57.4492244,36.7500084 56.3164062,35.078125 C55.1835881,33.4062416 54.6171875,31.468761 54.6171875,29.265625 L61.671875,29.265625 C61.671875,33.0312688 63.9218525,34.9140625 68.421875,34.9140625 C70.0937584,34.9140625 71.3984328,34.5742221 72.3359375,33.8945312 C73.2734422,33.2148404 73.7421875,32.2656311 73.7421875,31.046875 L73.7421875,31.046875 Z M90.0104166,14.640625 L90.2213541,17.5703125 C92.0338632,15.3046762 94.4635264,14.171875 97.5104166,14.171875 C100.19793,14.171875 102.19791,14.9609296 103.510417,16.5390625 C104.822923,18.1171954 105.494791,20.4765468 105.526042,23.6171875 L105.526042,40 L98.7526041,40 L98.7526041,23.78125 C98.7526041,22.3437428 98.4401073,21.3007845 97.8151041,20.6523438 C97.190101,20.003903 96.1510489,19.6796875 94.6979166,19.6796875 C92.7916571,19.6796875 91.3619839,20.4921794 90.4088541,22.1171875 L90.4088541,40 L83.6354166,40 L83.6354166,14.640625 L90.0104166,14.640625 Z M124.020833,40 C123.708332,39.390622 123.481771,38.632817 123.341146,37.7265625 C121.700513,39.5546966 119.567721,40.46875 116.942708,40.46875 C114.458321,40.46875 112.399748,39.7500072 110.766927,38.3125 C109.134106,36.8749928 108.317708,35.0625109 108.317708,32.875 C108.317708,30.1874866 109.313792,28.1250072 111.30599,26.6875 C113.298187,25.2499928 116.177064,24.5234376 119.942708,24.5078125 L123.059896,24.5078125 L123.059896,23.0546875 C123.059896,21.8828066 122.759118,20.945316 122.157552,20.2421875 C121.555986,19.539059 120.606777,19.1875 119.309896,19.1875 C118.169265,19.1875 117.274743,19.4609348 116.626302,20.0078125 C115.977861,20.5546902 115.653646,21.3046827 115.653646,22.2578125 L108.880208,22.2578125 C108.880208,20.7890552 109.333329,19.4296937 110.239583,18.1796875 C111.145838,16.9296813 112.427075,15.9492223 114.083333,15.2382812 C115.739592,14.5273402 117.598948,14.171875 119.661458,14.171875 C122.786474,14.171875 125.266918,14.9570234 127.102865,16.5273438 C128.938811,18.0976641 129.856771,20.3046733 129.856771,23.1484375 L129.856771,34.140625 C129.872396,36.546887 130.20833,38.3671813 130.864583,39.6015625 L130.864583,40 L124.020833,40 Z M118.419271,35.2890625 C119.419276,35.2890625 120.341142,35.0664085 121.184896,34.6210938 C122.02865,34.175779 122.653644,33.5781288 123.059896,32.828125 L123.059896,28.46875 L120.528646,28.46875 C117.138004,28.46875 115.333334,29.6406133 115.114583,31.984375 L115.091146,32.3828125 C115.091146,33.2265667 115.388018,33.9218723 115.981771,34.46875 C116.575524,35.0156277 117.388016,35.2890625 118.419271,35.2890625 L118.419271,35.2890625 Z M141.835937,8.40625 L141.835937,14.640625 L146.171875,14.640625 L146.171875,19.609375 L141.835937,19.609375 L141.835937,32.265625 C141.835937,33.2031297 142.015623,33.874998 142.375,34.28125 C142.734377,34.687502 143.42187,34.890625 144.4375,34.890625 C145.187504,34.890625 145.851559,34.835938 146.429687,34.7265625 L146.429687,39.859375 C145.101556,40.265627 143.734382,40.46875 142.328125,40.46875 C137.578101,40.46875 135.15625,38.0703365 135.0625,33.2734375 L135.0625,19.609375 L131.359375,19.609375 L131.359375,14.640625 L135.0625,14.640625 L135.0625,8.40625 L141.835937,8.40625 Z M159.158854,35.0078125 C160.40886,35.0078125 161.424475,34.6640659 162.205729,33.9765625 C162.986983,33.2890591 163.393229,32.3750057 163.424479,31.234375 L169.776042,31.234375 C169.760416,32.9531336 169.291671,34.5273366 168.369792,35.9570312 C167.447912,37.3867259 166.186206,38.4960898 164.584635,39.2851562 C162.983065,40.0742227 161.213551,40.46875 159.276042,40.46875 C155.651023,40.46875 152.791677,39.3164178 150.697917,37.0117188 C148.604156,34.7070197 147.557292,31.5234578 147.557292,27.4609375 L147.557292,27.015625 C147.557292,23.1093555 148.596344,19.9921991 150.674479,17.6640625 C152.752614,15.3359259 155.604148,14.171875 159.229167,14.171875 C162.401057,14.171875 164.944001,15.0742097 166.858073,16.8789062 C168.772145,18.6836028 169.744791,21.0859225 169.776042,24.0859375 L163.424479,24.0859375 C163.393229,22.7734309 162.986983,21.7070354 162.205729,20.8867188 C161.424475,20.0664021 160.393235,19.65625 159.111979,19.65625 C157.533846,19.65625 156.342452,20.230463 155.53776,21.3789062 C154.733069,22.5273495 154.330729,24.3906121 154.330729,26.96875 L154.330729,27.671875 C154.330729,30.281263 154.729163,32.1562443 155.526042,33.296875 C156.32292,34.4375057 157.533846,35.0078125 159.158854,35.0078125 L159.158854,35.0078125 Z M178.919271,17.40625 C180.716155,15.2499892 182.973945,14.171875 185.692708,14.171875 C191.192736,14.171875 193.98177,17.3671555 194.059896,23.7578125 L194.059896,40 L187.286458,40 L187.286458,23.9453125 C187.286458,22.4921802 186.973961,21.4179722 186.348958,20.7226562 C185.723955,20.0273403 184.684903,19.6796875 183.231771,19.6796875 C181.247386,19.6796875 179.8099,20.4453048 178.919271,21.9765625 L178.919271,40 L172.145833,40 L172.145833,4 L178.919271,4 L178.919271,17.40625 Z M204.984375,40 L198.1875,40 L198.1875,14.640625 L204.984375,14.640625 L204.984375,40 Z M197.789062,8.078125 C197.789062,7.06249492 198.128903,6.22656578 198.808594,5.5703125 C199.488284,4.91405922 200.414056,4.5859375 201.585937,4.5859375 C202.742193,4.5859375 203.664059,4.91405922 204.351562,5.5703125 C205.039066,6.22656578 205.382812,7.06249492 205.382812,8.078125 C205.382812,9.10938016 205.035159,9.95312172 204.339844,10.609375 C203.644528,11.2656283 202.726568,11.59375 201.585937,11.59375 C200.445307,11.59375 199.527347,11.2656283 198.832031,10.609375 C198.136715,9.95312172 197.789062,9.10938016 197.789062,8.078125 L197.789062,8.078125 Z M211.080729,40 L211.080729,19.609375 L207.307291,19.609375 L207.307291,14.640625 L211.080729,14.640625 L211.080729,12.484375 C211.080729,9.64061078 211.897127,7.4336016 213.529948,5.86328125 C215.162768,4.2929609 217.447902,3.5078125 220.385416,3.5078125 C221.322921,3.5078125 222.471347,3.66406094 223.830729,3.9765625 L223.760416,9.2265625 C223.197914,9.0859368 222.51042,9.015625 221.697916,9.015625 C219.151029,9.015625 217.877604,10.2109255 217.877604,12.6015625 L217.877604,14.640625 L222.916666,14.640625 L222.916666,19.609375 L217.877604,19.609375 L217.877604,40 L211.080729,40 Z M234.567708,30.4140625 L239.255208,14.640625 L246.520833,14.640625 L236.325521,43.9375 L235.763021,45.2734375 C234.247388,48.5859541 231.747413,50.2421875 228.263021,50.2421875 C227.278641,50.2421875 226.278651,50.0937515 225.263021,49.796875 L225.263021,44.6640625 L226.294271,44.6875 C227.575527,44.6875 228.532549,44.4921895 229.165364,44.1015625 C229.79818,43.7109355 230.294269,43.0625045 230.653646,42.15625 L231.450521,40.0703125 L222.567708,14.640625 L229.856771,14.640625 L234.567708,30.4140625 Z" id="Snatchify"></path>
                </g>
            </g>
        </g>
    </g>
</svg>